<?xml version="1.0" encoding="UTF-8"?>
<svg version="1.1" xmlns="http://www.w3.org/2000/svg" width="400" height="400">
<path d="M0 0 C132 0 264 0 400 0 C400 132 400 264 400 400 C268 400 136 400 0 400 C0 268 0 136 0 0 Z " fill="#1B1E2C" transform="translate(0,0)"/>
<path d="M0 0 C3.51515965 0.01408924 7.0302957 0.00736546 10.54547358 0.00386691 C16.42689644 0.00118824 22.30811241 0.0144528 28.18948603 0.03781772 C34.97452285 0.06458701 41.75921817 0.06611108 48.54428995 0.05442935 C55.11390309 0.04364279 61.68339354 0.04983433 68.25299692 0.06398463 C71.03357224 0.06971945 73.81405703 0.06968208 76.59463358 0.06491923 C80.46622608 0.05924907 84.33747756 0.07848795 88.20901728 0.10031772 C89.35291925 0.09581607 90.49682123 0.09131442 91.67538691 0.08667636 C98.5761447 0.15137939 103.36354082 0.53472131 108.44825888 5.63731456 C110.78258975 9.20763056 110.87310681 12.04042621 110.80812311 16.16451144 C110.81209653 16.92817446 110.81606996 17.69183748 110.82016379 18.47864181 C110.82874492 21.03372243 110.80893408 23.58779004 110.78933954 26.14279819 C110.78988833 27.97614309 110.79226336 29.80948822 110.79632807 31.6428287 C110.80150453 35.58907768 110.79443214 39.5350489 110.77807665 43.48126674 C110.75297538 49.72131515 110.75923752 55.96108882 110.77055597 62.20116305 C110.79376499 77.70004935 110.77532241 93.19885658 110.74905634 108.69772983 C110.72911604 120.74323567 110.72052115 132.78852244 110.74599272 144.83402854 C110.7578145 151.03702005 110.74614037 157.23938799 110.71674001 163.44231474 C110.70348511 167.30166693 110.71090256 171.16077724 110.72402048 175.02012134 C110.72587712 176.80916897 110.71916017 178.59824926 110.70321703 180.38722682 C110.68262632 182.83122587 110.69279418 185.27326698 110.71046686 187.71724582 C110.69706512 188.4239655 110.68366339 189.13068519 110.66985554 189.85882062 C110.76307177 195.46833844 112.62798867 197.60891224 116.32278681 201.50437045 C117.44778681 204.00437045 117.44778681 204.00437045 118.32278681 206.50437045 C121.1111554 213.10840132 125.71127436 217.90133694 130.72903681 222.90280795 C133.37916805 225.56092151 135.9222595 228.29033508 138.44778681 231.06687045 C139.7200915 232.46099154 139.7200915 232.46099154 141.01809931 233.8832767 C146.6053296 240.23756742 148.6612679 244.73657261 148.44778681 253.31687045 C148.43876337 254.00974154 148.42973993 254.70261264 148.42044306 255.41647983 C148.39704837 257.1125944 148.36118321 258.80852916 148.32278681 260.50437045 C147.66278681 260.83437045 147.00278681 261.16437045 146.32278681 261.50437045 C146.01341181 262.30874545 145.70403681 263.11312045 145.38528681 263.94187045 C144.32278681 266.50437045 144.32278681 266.50437045 141.32278681 268.50437045 C138.56418562 268.75046611 138.56418562 268.75046611 135.15355158 268.74487948 C133.21631723 268.74900348 133.21631723 268.74900348 131.23994684 268.75321078 C129.80572656 268.74613245 128.37150721 268.73886283 126.93728876 268.73142123 C125.42947634 268.73085719 123.92166336 268.73117355 122.41385126 268.73230624 C118.31700418 268.73288101 114.22027377 268.72110661 110.12345386 268.70715833 C105.84332111 268.69467168 101.56318581 268.6934821 97.28303766 268.69110751 C89.17639681 268.68488666 81.06980978 268.66846767 72.96319264 268.64840853 C63.73476933 268.62606835 54.50634347 268.61506084 45.27789986 268.60501766 C26.29283164 268.58410196 7.30781355 268.54891423 -11.67721319 268.50437045 C-11.67721319 269.16437045 -11.67721319 269.82437045 -11.67721319 270.50437045 C-46.66152202 272.26335805 -78.77934367 257.18979368 -104.67721319 234.50437045 C-127.22696972 214.10760575 -143.07928536 183.73014294 -146.67721319 153.50437045 C-146.80061695 150.78148791 -146.88742751 148.08309684 -146.91549444 145.3598392 C-146.92356619 144.5911803 -146.93163794 143.82252139 -146.93995428 143.03056979 C-146.95371935 141.406055 -146.96447501 139.78151222 -146.97237921 138.15695834 C-146.98379734 136.53317106 -147.00408395 134.90941821 -147.03390265 133.28586459 C-147.31696883 117.81210699 -145.03325646 103.30682574 -139.42721319 88.81687045 C-139.12984259 88.03416781 -138.83247198 87.25146518 -138.52609015 86.44504428 C-125.43198299 52.94524399 -99.43969269 26.1793193 -66.72311163 11.39499545 C-44.89780687 1.89395586 -23.64732535 -0.11871091 0 0 Z " fill="#FCFCFC" transform="translate(211.67721319198608,64.49562954902649)"/>
<path d="M0 0 C33 0 66 0 100 0 C100 52.14 100 104.28 100 158 C67 158 34 158 0 158 C0 127.97 0 97.94 0 67 C-2.97 67 -5.94 67 -9 67 C-12.14777272 65.88595393 -14.55966675 64.27888627 -17 62 C-18.37334311 58.60703467 -18.16116378 57.48349135 -17 54 C-20.99541834 52.66819389 -24.52264959 53.2769705 -28.625 53.75 C-29.44097656 53.84071777 -30.25695312 53.93143555 -31.09765625 54.02490234 C-36.01835776 54.62030723 -40.37470756 55.57281992 -44.98828125 57.421875 C-47.48695786 58.13994129 -49.59789557 58.01270422 -52.1875 57.875 C-55.7999607 57.7457829 -57.67877298 57.99923113 -60.5 60.3125 C-63.14090202 63.15146967 -64.77515804 65.19378096 -65.8203125 68.94140625 C-67.23309313 72.60434411 -68.69518092 73.70596524 -71.875 75.9375 C-77.92543585 80.40975859 -77.92543585 80.40975859 -81 87 C-80.92916354 90.32514668 -80.63050761 93.52362002 -80.1640625 96.81640625 C-79.98113999 100.36597402 -80.77483114 102.69675627 -82 106 C-81.70194993 108.19747131 -81.70194993 108.19747131 -81 110 C-81 110.66 -81 111.32 -81 112 C-80.34 112 -79.68 112 -79 112 C-77.66796875 113.3203125 -77.66796875 113.3203125 -76.1875 115.125 C-75.65640625 115.76179688 -75.1253125 116.39859375 -74.578125 117.0546875 C-73.59985832 118.26057068 -72.62948036 119.47295743 -71.671875 120.6953125 C-69.04915439 123.9986125 -66.95433232 126.45265257 -63 128 C-56.04277703 128.60889796 -46.26750664 129.14567373 -39.90234375 125.9453125 C-37.03797595 124.52195109 -35.03459481 125.2413513 -32 126 C-31.360625 126.33 -30.72125 126.66 -30.0625 127 C-27.13631111 128.41875825 -24.20671034 128.62999496 -21 129 C-21.12181641 130.30710938 -21.12181641 130.30710938 -21.24609375 131.640625 C-21.70745473 140.34057493 -20.33883097 144.96885975 -15.5625 152.171875 C-12.89918801 156.99246971 -13.16090382 161.74043405 -14.5078125 166.97265625 C-17.70584031 180.14548509 -10.78687507 192.00181807 -4.76757812 203.26831055 C-1.09510753 210.28714928 0.27817595 216.53485081 0.125 224.5 C0.10695313 225.7271875 0.08890625 226.954375 0.0703125 228.21875 C0.04710937 229.1365625 0.02390625 230.054375 0 231 C-28.71334705 231.93124369 -57.95825101 221.48256909 -79.0625 201.8125 C-81.06120667 199.89368176 -83.03092598 197.94955062 -85 196 C-85.66257813 195.39800781 -86.32515625 194.79601562 -87.0078125 194.17578125 C-104.97027154 177.59183651 -118.3319587 148.12513339 -119.48104858 123.92654419 C-119.56605103 120.53218209 -119.55206162 117.14475575 -119.5 113.75 C-119.49446106 113.03587952 -119.48892212 112.32175903 -119.48321533 111.58599854 C-119.21688037 82.16868709 -109.76794436 56.64460172 -91 34 C-90.35804687 33.21625 -89.71609375 32.4325 -89.0546875 31.625 C-87.42246778 29.69268607 -85.72831849 27.84606281 -84 26 C-83.54238281 25.42378906 -83.08476563 24.84757812 -82.61328125 24.25390625 C-77.28126779 18.41808049 -69.49790541 18.57222828 -62.05859375 18.09082031 C-59.0346906 17.95741282 -56.02642863 17.96017857 -53 18 C-53 18.33 -53 18.66 -53 19 C-54.65 19.33 -56.3 19.66 -58 20 C-58 20.99 -58 21.98 -58 23 C-60.64 23 -63.28 23 -66 23 C-66 23.66 -66 24.32 -66 25 C-64.948125 25.0825 -63.89625 25.165 -62.8125 25.25 C-58.69938658 26.05913707 -56.89359187 27.01872352 -54 30 C-54 30.99 -54 31.98 -54 33 C-61.25177382 35.40656211 -68.44392214 36.89644911 -76 38 C-75.34 38.99 -74.68 39.98 -74 41 C-74.31627097 44.54223486 -74.87548091 47.62644274 -76 51 C-75.34 51 -74.68 51 -74 51 C-74 51.99 -74 52.98 -74 54 C-71.45679484 53.91240742 -68.91683067 53.80546587 -66.375 53.6875 C-65.66214844 53.66494141 -64.94929688 53.64238281 -64.21484375 53.61914062 C-59.31797892 53.37205112 -54.65381483 52.65381483 -51 49 C-50.979375 47.948125 -50.95875 46.89625 -50.9375 45.8125 C-49.76462196 41.04279598 -48.02234189 39.94400524 -44.10546875 37.26171875 C-43.41066406 36.84535156 -42.71585937 36.42898437 -42 36 C-41.37867188 35.61199219 -40.75734375 35.22398438 -40.1171875 34.82421875 C-32.91496559 32.02040173 -23.24034926 35.0666622 -16.38671875 37.828125 C-12.3304494 39.81974661 -8.79065673 41.91040721 -7.125 46.3125 C-7.08375 46.869375 -7.0425 47.42625 -7 48 C-6.814375 46.0509375 -6.814375 46.0509375 -6.625 44.0625 C-6.4140625 41.84765625 -6.4140625 41.84765625 -6 40 C-5.34 39.67 -4.68 39.34 -4 39 C-4.99902344 38.46890625 -5.99804688 37.9378125 -7.02734375 37.390625 C-8.33110788 36.67777555 -9.63447282 35.96419565 -10.9375 35.25 C-11.59685547 34.90195313 -12.25621094 34.55390625 -12.93554688 34.1953125 C-17.78929937 31.50708035 -17.78929937 31.50708035 -18.94140625 28.734375 C-18.96074219 28.16203125 -18.98007813 27.5896875 -19 27 C-10.95386524 27.17880299 -8.79574402 30.03907199 -1 35 C-0.67 23.45 -0.34 11.9 0 0 Z " fill="#1C1F2D" transform="translate(200,88)"/>
<path d="M0 0 C7.08430766 -0.04583664 14.16810376 -0.08568465 21.25244141 -0.10986328 C23.66391744 -0.11993954 26.07538122 -0.13360081 28.48681641 -0.15087891 C31.94697085 -0.1750559 35.4069642 -0.18646669 38.8671875 -0.1953125 C39.95055389 -0.20563507 41.03392029 -0.21595764 42.15011597 -0.22659302 C43.1510025 -0.22674408 44.15188904 -0.22689514 45.18310547 -0.22705078 C46.06690887 -0.231492 46.95071228 -0.23593323 47.86129761 -0.24050903 C50 0 50 0 52 2 C52.58776573 3.35593481 53.12109106 4.73571833 53.625 6.125 C55.80635652 11.81151336 58.53592067 17.16420527 61.35791016 22.55322266 C64 27.68374889 64 27.68374889 64 31 C42.88 31 21.76 31 0 31 C0 20.77 0 10.54 0 0 Z " fill="#1D1F2D" transform="translate(200,273)"/>
<path d="M0 0 C13.15149024 -0.0231209 26.30297569 -0.04091379 39.45448208 -0.05181217 C45.56056369 -0.05704156 51.66663144 -0.0641402 57.77270508 -0.07543945 C63.66005147 -0.08626637 69.54738449 -0.09227642 75.43474007 -0.09487724 C77.68632277 -0.09673185 79.93790469 -0.10035313 82.18948174 -0.10573006 C85.33133427 -0.11293789 88.47313083 -0.11399105 91.61499023 -0.11352539 C93.02623421 -0.1189183 93.02623421 -0.1189183 94.46598816 -0.12442017 C100.88594784 -0.11405216 100.88594784 -0.11405216 102 1 C102.0990087 3.0583933 102.12632317 5.12024203 102.12698364 7.18101501 C102.12932363 8.16023252 102.12932363 8.16023252 102.13171089 9.1592322 C102.13572264 11.36260631 102.13253057 13.5659124 102.12939453 15.76928711 C102.13074851 17.34252462 102.13252842 18.91576182 102.13470459 20.48899841 C102.13927973 24.77406865 102.13748894 29.05911492 102.1343255 33.34418559 C102.13180187 37.81959141 102.13413949 42.29499511 102.13571167 46.770401 C102.13753354 54.28858816 102.13512679 61.8067655 102.13037109 69.32495117 C102.12493041 78.0267026 102.12668965 86.72843059 102.1321975 95.43018144 C102.13673048 102.88919651 102.13737821 110.34820452 102.13475883 117.80722052 C102.13319682 122.26740342 102.13300018 126.72757529 102.13629532 131.18775749 C102.13917664 135.38113188 102.13719351 139.57447596 102.13140106 143.76784706 C102.13007479 145.31022466 102.13046535 146.85260479 102.13266373 148.39498138 C102.13538045 150.49402288 102.13198764 152.59296617 102.12698364 154.69200134 C102.1264181 156.45713027 102.1264181 156.45713027 102.12584114 158.25791836 C102 161 102 161 101 163 C67.67 163 34.34 163 0 163 C0 162.34 0 161.68 0 161 C33 161 66 161 100 161 C100 108.86 100 56.72 100 3 C67 3 34 3 0 3 C0 2.01 0 1.02 0 0 Z " fill="#A8A9AA" transform="translate(200,85)"/>
<path d="M0 0 C14.49932613 -0.07013648 28.99862588 -0.12281131 43.49808693 -0.15543652 C50.23071596 -0.1708937 56.96323948 -0.19196109 63.69580078 -0.22631836 C70.19264709 -0.25945688 76.68942493 -0.27685189 83.18635178 -0.28463173 C85.66547751 -0.29017629 88.14459721 -0.30100336 90.6236763 -0.31719017 C94.09511549 -0.33895573 97.56610125 -0.34196721 101.03759766 -0.34057617 C102.06330872 -0.351362 103.08901978 -0.36214783 104.14581299 -0.3732605 C110.75275188 -0.34459858 115.26495334 0.26081545 120.1299696 5.13319206 C122.45888118 8.70347744 122.55028204 11.53846502 122.4853363 15.66014099 C122.48930973 16.42380401 122.49328315 17.18746703 122.49737698 17.97427136 C122.50595811 20.52935198 122.48614728 23.08341959 122.46655273 25.63842773 C122.46710153 27.47177264 122.46947655 29.30511777 122.47354126 31.13845825 C122.47871772 35.08470723 122.47164533 39.03067845 122.45528984 42.97689629 C122.43018858 49.2169447 122.43645071 55.45671837 122.44776917 61.6967926 C122.47097818 77.1956789 122.4525356 92.69448613 122.42626953 108.19335938 C122.40632923 120.23886521 122.39773434 132.28415199 122.42320591 144.32965809 C122.43502769 150.5326496 122.42335356 156.73501754 122.3939532 162.93794429 C122.3806983 166.79729648 122.38811576 170.65640679 122.40123367 174.51575089 C122.40309032 176.30479852 122.39637336 178.09387881 122.38043022 179.88285637 C122.35983951 182.32685542 122.37000737 184.76889653 122.38768005 187.21287537 C122.37427832 187.91959505 122.36087658 188.62631473 122.34706873 189.35445017 C122.43946378 194.91455093 124.26737033 197.18916952 128 201 C127.67 201.66 127.34 202.32 127 203 C123.71790033 200.58161077 121.41425625 198.85476083 120 195 C119.80572726 192.48086872 119.71887099 190.07235845 119.72825623 187.55381775 C119.72316939 186.80114311 119.71808255 186.04846848 119.71284157 185.27298552 C119.69817195 182.74956544 119.69764707 180.2263406 119.69702148 177.70288086 C119.68936087 175.89436971 119.68081461 174.08586213 119.67144775 172.27735901 C119.65316399 168.38247726 119.64112872 164.48764359 119.63390923 160.59272575 C119.62243387 154.43762352 119.59698291 148.2826278 119.56959534 142.12757874 C119.5279359 132.3954538 119.49552485 122.66332378 119.46712118 112.93115193 C119.41615004 95.49461066 119.35405651 78.05811371 119.28178078 60.62164789 C119.25682854 54.49917823 119.23741046 48.37672267 119.22239864 42.25422084 C119.212212 38.45080602 119.19806611 34.64741311 119.18292236 30.84401512 C119.17675428 29.07630173 119.17230204 27.30858141 119.16966438 25.54085922 C119.16586645 23.13359819 119.15606326 20.72643434 119.14476013 18.31919861 C119.14533933 17.26249738 119.14533933 17.26249738 119.14593023 16.18444866 C119.11795353 11.933229 119.02517972 9.16187035 116.125 5.875 C113.00019246 3.11781688 110.43682793 2.87351163 106.42524719 2.84178162 C105.4871521 2.8319928 104.54905701 2.82220398 103.58253479 2.81211853 C102.04181557 2.80348534 102.04181557 2.80348534 100.4699707 2.79467773 C98.84534409 2.77982834 98.84534409 2.77982834 97.18789673 2.76467896 C93.6005473 2.73303945 90.01318461 2.70829674 86.42578125 2.68359375 C83.94141797 2.66302635 81.4570582 2.64202993 78.97270203 2.62062073 C73.09731676 2.57102732 67.22191055 2.52576769 61.34647483 2.48259836 C54.00112854 2.42836417 46.6558417 2.36741788 39.31054688 2.30664062 C26.20707091 2.19903214 13.10355557 2.09740657 0 2 C0 1.34 0 0.68 0 0 Z " fill="#9B9C9D" transform="translate(200,65)"/>
<path d="M0 0 C1.98 0.99 1.98 0.99 4 2 C4.44519464 10.58236341 4.65421499 18.46608677 0 26 C-3.55261177 28.36840785 -5.03322775 28.24731895 -9.24516296 28.24050903 C-10.55348083 28.24325836 -11.86179871 28.24600769 -13.20976257 28.24884033 C-14.66287323 28.24176198 -16.11598296 28.23449236 -17.5690918 28.22705078 C-19.0966084 28.22648674 -20.62412555 28.22680309 -22.15164185 28.22793579 C-26.30220559 28.22851059 -30.45265419 28.21673579 -34.60319114 28.20278788 C-38.93937839 28.19030163 -43.27556817 28.18911168 -47.61177063 28.18673706 C-55.82465905 28.18051609 -64.03749435 28.16409694 -72.25035936 28.14403808 C-81.59969945 28.12169826 -90.94904206 28.11069048 -100.29840219 28.10064721 C-119.53229827 28.07973124 -138.76614486 28.04454328 -158 28 C-158 27.34 -158 26.68 -158 26 C-157.21424434 25.99668985 -156.42848867 25.99337971 -155.61892223 25.98996925 C-136.5156398 25.90881259 -117.41243864 25.81674437 -98.309268 25.71247292 C-89.07118581 25.66231261 -79.83311265 25.61587013 -70.5949707 25.578125 C-62.54470106 25.5452239 -54.49450078 25.50540319 -46.44430763 25.45720994 C-42.18026349 25.43192617 -37.91626547 25.41015049 -33.65216637 25.39665604 C-29.64094391 25.38385265 -25.62987948 25.36181707 -21.6187439 25.33261681 C-20.14453143 25.3235275 -18.6702935 25.31784765 -17.19605446 25.31578636 C-15.18707894 25.31247353 -13.17813843 25.29583762 -11.16923523 25.2784729 C-10.043726 25.27294214 -8.91821676 25.26741138 -7.75860119 25.26171303 C-4.78602791 25.19942201 -4.78602791 25.19942201 -2 23 C-0.79549696 20.44816596 -0.79549696 20.44816596 0 18 C0.66 18 1.32 18 2 18 C1.8590651 15.56212615 1.71245458 13.12482147 1.5625 10.6875 C1.52318359 9.99720703 1.48386719 9.30691406 1.44335938 8.59570312 C1.25072585 5.52838465 0.97677283 2.93031848 0 0 Z " fill="#76767A" transform="translate(358,307)"/>
<path d="M0 0 C0.99 0 1.98 0 3 0 C4.86464818 3.46188261 6.71553595 6.93073744 8.55419922 10.40649414 C9.48862667 12.16608327 10.43370687 13.92000182 11.37890625 15.67382812 C11.96542969 16.78564453 12.55195313 17.89746094 13.15625 19.04296875 C13.97319336 20.57473755 13.97319336 20.57473755 14.80664062 22.13745117 C16.01963651 25.04710273 16.3413137 26.88828738 16 30 C15 31 15 31 12.33616638 31.12025452 C10.5541256 31.1169236 10.5541256 31.1169236 8.73608398 31.11352539 C7.7556311 31.11374443 7.7556311 31.11374443 6.75537109 31.1139679 C4.58557872 31.11326883 2.41587121 31.10547678 0.24609375 31.09765625 C-1.25463311 31.09579205 -2.75536057 31.09436816 -4.25608826 31.09336853 C-8.21318226 31.08954352 -12.17023978 31.0797134 -16.12731934 31.06866455 C-20.16234849 31.05845006 -24.19738353 31.05387083 -28.23242188 31.04882812 C-36.15496469 31.03809111 -44.07747781 31.0210149 -52 31 C-52.33 29.68 -52.66 28.36 -53 27 C-31.55 27 -10.1 27 12 27 C8.89574273 18.94251819 8.89574273 18.94251819 4.875 11.8125 C2.42315091 7.89325638 0.9797886 4.50702755 0 0 Z " fill="#E1E2E2" transform="translate(252,277)"/>
<path d="M0 0 C-3.39250279 3.11919814 -5.74494729 3.37193865 -10.28948975 3.36076355 C-12.22878609 3.36694954 -12.22878609 3.36694954 -14.20726013 3.3732605 C-15.63784999 3.36264368 -17.06843774 3.35173926 -18.49902344 3.34057617 C-20.00698327 3.33972986 -21.51494433 3.34020512 -23.02290344 3.34190369 C-27.11561948 3.34276491 -31.2080721 3.32511861 -35.30072689 3.30418181 C-39.57817692 3.28543624 -43.8556329 3.28366625 -48.13311768 3.28010559 C-56.23267447 3.27077889 -64.33210988 3.24615666 -72.43161321 3.21605712 C-81.65279514 3.18253256 -90.87398285 3.166032 -100.09521055 3.15097082 C-119.06354254 3.11960764 -138.03176151 3.06683499 -157 3 C-157 2.34 -157 1.68 -157 1 C-156.23154912 0.99576806 -155.46309824 0.99153612 -154.67136097 0.98717594 C-135.97632157 0.88388725 -117.28132025 0.77525212 -98.58634663 0.66066074 C-89.5456146 0.60537435 -80.50487862 0.55189989 -71.46411133 0.50268555 C-63.58451192 0.45978755 -55.70494104 0.41349541 -47.82538575 0.36312145 C-43.65294592 0.33656576 -39.48051159 0.31171385 -35.30803871 0.29092598 C-31.38057661 0.27130517 -27.45316856 0.24714525 -23.52575493 0.21950912 C-22.08462635 0.21016748 -20.64348594 0.20248191 -19.20233917 0.19658089 C-17.23348635 0.18827059 -15.26466445 0.17340546 -13.29585266 0.15821838 C-12.19431005 0.15176583 -11.09276743 0.14531328 -9.95784473 0.1386652 C-7.01263733 0.077857 -7.01263733 0.077857 -4.23150921 -0.57238865 C-2 -1 -2 -1 0 0 Z " fill="#DADADB" transform="translate(357,330)"/>
<path d="M0 0 C0.99 0.495 0.99 0.495 2 1 C2.00054477 1.95821718 2.00108953 2.91643436 2.00165081 3.90368843 C2.01604314 27.21403857 2.05904697 50.5242019 2.13209057 73.83444405 C2.16675079 85.10709931 2.19209745 96.37963217 2.19555664 107.65234375 C2.19859509 117.47709869 2.21906959 127.30163567 2.26052457 137.12630641 C2.28186698 142.32895357 2.29444874 147.53129075 2.28615379 152.73398209 C2.27862161 157.63099728 2.29440269 162.52738399 2.32806015 167.42428398 C2.33630345 169.22135885 2.33603156 171.0184961 2.32659721 172.81556511 C2.3149835 175.27086094 2.33407829 177.72409418 2.36076355 180.17922974 C2.34475366 181.24442516 2.34475366 181.24442516 2.32842034 182.33113968 C2.44120081 187.89806833 4.26073921 190.18298517 8 194 C7.505 194.99 7.505 194.99 7 196 C2.125 192.25 2.125 192.25 1 190 C0.89240535 187.50662574 0.84510763 185.04043566 0.84178162 182.5463562 C0.83684364 181.7687724 0.83190566 180.9911886 0.82681805 180.19004166 C0.8113945 177.57054433 0.80306933 174.95107159 0.79467773 172.33154297 C0.78510302 170.45934836 0.77509319 168.58715594 0.76467896 166.71496582 C0.73757971 161.62021932 0.71659737 156.52546351 0.69667697 151.43068457 C0.67484831 146.11084631 0.64744439 140.79103692 0.62062073 135.47122192 C0.57065155 125.39192001 0.52572843 115.31260211 0.48259836 105.23326886 C0.43326204 93.76062848 0.37833057 82.28801705 0.32291877 70.81540465 C0.20903388 47.21029677 0.10220906 23.60516112 0 0 Z " fill="#767679" transform="translate(320,72)"/>
<path d="M0 0 C2 2 2 2 2 5 C-19.78 5 -41.56 5 -64 5 C-64.33 4.34 -64.66 3.68 -65 3 C-43.55 3 -22.1 3 0 3 C0 2.01 0 1.02 0 0 Z " fill="#8A8B8D" transform="translate(264,301)"/>
<path d="M0 0 C7.08411622 -0.05058526 14.16818612 -0.08568494 21.25244141 -0.10986328 C23.66391744 -0.11993954 26.07538122 -0.13360081 28.48681641 -0.15087891 C31.94697085 -0.1750559 35.4069642 -0.18646669 38.8671875 -0.1953125 C39.95055389 -0.20563507 41.03392029 -0.21595764 42.15011597 -0.22659302 C43.1510025 -0.22674408 44.15188904 -0.22689514 45.18310547 -0.22705078 C46.06690887 -0.231492 46.95071228 -0.23593323 47.86129761 -0.24050903 C50 0 50 0 52 2 C51.625 4.125 51.625 4.125 51 6 C50.34 5.01 49.68 4.02 49 3 C46.82584957 2.52427183 46.82584957 2.52427183 44.27490234 2.56762695 C42.80360367 2.53793571 42.80360367 2.53793571 41.30258179 2.50764465 C40.24108917 2.50125473 39.17959656 2.49486481 38.0859375 2.48828125 C37.00116119 2.47033005 35.91638489 2.45237885 34.79873657 2.43388367 C31.32419761 2.3795769 27.84979758 2.34581932 24.375 2.3125 C22.02341808 2.27934496 19.67185454 2.24485702 17.3203125 2.20898438 C11.54699959 2.12383894 5.77366913 2.05557568 0 2 C0 1.34 0 0.68 0 0 Z " fill="#7E7F81" transform="translate(200,273)"/>
<path d="M0 0 C2.27804239 2.87928525 4.04034684 5.7830329 5.6875 9.0625 C6.12449219 9.91972656 6.56148438 10.77695312 7.01171875 11.66015625 C8 14 8 14 8 17 C-13.12 17 -34.24 17 -56 17 C-56 16.67 -56 16.34 -56 16 C-25.31 15.505 -25.31 15.505 6 15 C3.03 9.555 3.03 9.555 0 4 C0 2.68 0 1.36 0 0 Z " fill="#424349" transform="translate(256,287)"/>
<path d="M0 0 C1.77734375 0.16796875 1.77734375 0.16796875 4 1 C5.81640625 3.36328125 5.81640625 3.36328125 7.5625 6.3125 C11.06968965 13.0286834 11.06968965 13.0286834 17 17 C18.03291676 18.98320018 19.0337499 20.98347806 20 23 C20.66 23.33 21.32 23.66 22 24 C23.88382493 26.90423009 25.4670022 29.90096565 27 33 C22.34768436 29.36623867 18.82625712 25.60572756 15.3984375 20.80859375 C13.56812789 18.44146149 11.35873885 16.82802261 9 15 C5.43925528 11.34206374 2.51517738 7.95876232 1 3 C0.67 2.01 0.34 1.02 0 0 Z " fill="#A4A4A6" transform="translate(328,268)"/>
<path d="M0 0 C0.99 0 1.98 0 3 0 C4.30203187 2.49505641 5.59160266 4.99537682 6.875 7.5 C7.23980469 8.19609375 7.60460937 8.8921875 7.98046875 9.609375 C10.39478122 14.35020677 11.88632082 18.79501519 13 24 C12.34 24 11.68 24 11 24 C5.04296875 12.0859375 5.04296875 12.0859375 3.99755859 9.98730469 C3.09263065 8.18453586 2.16662702 6.39238471 1.23828125 4.6015625 C0 2 0 2 0 0 Z " fill="#BEBEBF" transform="translate(252,277)"/>
<path d="M0 0 C1.32 0.66 2.64 1.32 4 2 C4.0544452 4.20805524 4.09299283 6.41650554 4.125 8.625 C4.14820313 9.85476563 4.17140625 11.08453125 4.1953125 12.3515625 C4.0030428 15.94316041 3.30258556 18.66661175 2 22 C1.34 22 0.68 22 0 22 C-0.33 22.99 -0.66 23.98 -1 25 C-3.0625 25.6875 -3.0625 25.6875 -5 26 C-4.54625 25.608125 -4.0925 25.21625 -3.625 24.8125 C-1.72357081 22.69167513 -0.93795972 20.66957765 0 18 C0.66 18 1.32 18 2 18 C1.8590651 15.56212615 1.71245458 13.12482147 1.5625 10.6875 C1.50352539 9.65206055 1.50352539 9.65206055 1.44335938 8.59570312 C1.25072585 5.52838465 0.97677283 2.93031848 0 0 Z " fill="#909193" transform="translate(358,307)"/>
<path d="M0 0 C1.69682028 1.64208415 3.35312603 3.30810897 5 5 C5.78246094 5.79792969 6.56492187 6.59585937 7.37109375 7.41796875 C8.19738281 8.29066406 9.02367187 9.16335938 9.875 10.0625 C10.67679687 10.89910156 11.47859375 11.73570312 12.3046875 12.59765625 C14 15 14 15 13.7578125 17.30859375 C13.50773437 17.86675781 13.25765625 18.42492187 13 19 C11.65772954 17.57084149 10.32642904 16.13137328 9 14.6875 C8.2575 13.88699219 7.515 13.08648437 6.75 12.26171875 C5 10 5 10 5 7 C4.360625 6.773125 3.72125 6.54625 3.0625 6.3125 C1 5 1 5 0.25 2.375 C0.1675 1.59125 0.085 0.8075 0 0 Z " fill="#C7C7C8" transform="translate(344,290)"/>
<path d="M0 0 C1.75 0.125 1.75 0.125 4 1 C7.77834788 5.55624303 8.54011136 9.11740537 8.25 14.875 C8.23195313 15.56335938 8.21390625 16.25171875 8.1953125 16.9609375 C8.14863748 18.6412381 8.07690939 20.32081163 8 22 C7.67 22 7.34 22 7 22 C7 17.38 7 12.76 7 8 C5.68 7.34 4.36 6.68 3 6 C0 2.57142857 0 2.57142857 0 0 Z " fill="#4C4D53" transform="translate(355,301)"/>
<path d="M0 0 C1.8125 0.125 1.8125 0.125 4 1 C5.0650015 2.96615661 6.06833174 4.96726926 7 7 C7.66 7.33 8.32 7.66 9 8 C10.88382493 10.90423009 12.4670022 13.90096565 14 17 C8.48898107 12.61367881 3.88876535 7.90997773 0 2 C0 1.34 0 0.68 0 0 Z " fill="#6C6D71" transform="translate(341,284)"/>
<path d="M0 0 C0.66 0.33 1.32 0.66 2 1 C2 5.95 2 10.9 2 16 C1.01 16.33 0.02 16.66 -1 17 C-0.67 11.39 -0.34 5.78 0 0 Z " fill="#E0E0E1" transform="translate(358,309)"/>
<path d="M0 0 C0.99 0 1.98 0 3 0 C3.86646667 1.43011973 4.71781829 2.86940619 5.5625 4.3125 C6.03816406 5.11300781 6.51382812 5.91351563 7.00390625 6.73828125 C8 9 8 9 7 12 C6.67 10.68 6.34 9.36 6 8 C4.68 7.67 3.36 7.34 2 7 C1.34 4.69 0.68 2.38 0 0 Z " fill="#D0D0D1" transform="translate(252,277)"/>
<path d="M0 0 C2.65614176 0.36969853 3.74758254 0.70475592 5.51953125 2.77734375 C5.94621094 3.49019531 6.37289063 4.20304687 6.8125 4.9375 C7.25207031 5.64777344 7.69164062 6.35804688 8.14453125 7.08984375 C8.42683594 7.72019531 8.70914062 8.35054688 9 9 C8.67 9.66 8.34 10.32 8 11 C6.66072279 9.54712339 5.32873153 8.08752741 4 6.625 C3.2575 5.81289063 2.515 5.00078125 1.75 4.1640625 C0 2 0 2 0 0 Z " fill="#636469" transform="translate(328,268)"/>
<path d="M0 0 C7.48291572 6.15034169 7.48291572 6.15034169 10 10 C9.67 10.66 9.34 11.32 9 12 C2.45454545 6.90909091 2.45454545 6.90909091 0 4 C0 2.68 0 1.36 0 0 Z " fill="#CECFCF" transform="translate(321,262)"/>
<path d="M0 0 C7 8.75 7 8.75 7 13 C6.34 13 5.68 13 5 13 C4.15615325 11.58957044 3.32530504 10.17135868 2.5 8.75 C2.0359375 7.96109375 1.571875 7.1721875 1.09375 6.359375 C0 4 0 4 0 0 Z " fill="#58595E" transform="translate(256,287)"/>
<path d="M0 0 C7.68490153 5.0940919 7.68490153 5.0940919 9 8.875 C9 9.57625 9 10.2775 9 11 C7.33333333 9.33333333 5.66666667 7.66666667 4 6 C3.236875 5.278125 2.47375 4.55625 1.6875 3.8125 C0 2 0 2 0 0 Z " fill="#D6D6D7" transform="translate(349,298)"/>
<path d="M0 0 C3.44475962 4.38423952 5.31620235 7.30835767 5 13 C4.34 13 3.68 13 3 13 C2.49487756 11.39743892 1.99608373 9.79288208 1.5 8.1875 C1.2215625 7.29417969 0.943125 6.40085937 0.65625 5.48046875 C0 3 0 3 0 0 Z " fill="#E3E3E3" transform="translate(263,294)"/>
</svg>
